<?xml version="1.0" standalone="no"?>
<!DOCTYPE svg PUBLIC "-//W3C//DTD SVG 20010904//EN"
 "http://www.w3.org/TR/2001/REC-SVG-20010904/DTD/svg10.dtd">
<svg version="1.0" xmlns="http://www.w3.org/2000/svg"
 width="200.000000pt" height="200.000000pt" viewBox="0 0 360.000000 360.000000"
 preserveAspectRatio="xMidYMid meet">

<g transform="translate(0.000000,360.000000) scale(0.100000,-0.100000)"
fill="#fff" stroke="none">
<path d="M1763 2695 c-39 -17 -55 -45 -51 -93 2 -29 -1 -39 -17 -47 -19 -10
-20 -21 -20 -205 l0 -195 33 -10 32 -9 0 -331 0 -330 -37 -164 -37 -163 -61
-39 -60 -39 248 0 c136 0 247 2 247 5 0 2 -25 20 -55 39 -32 21 -57 45 -60 58
-3 13 -19 84 -35 158 l-30 135 0 335 0 336 33 9 32 10 0 195 c0 184 -1 195
-20 205 -14 7 -19 18 -17 39 10 80 -54 132 -125 101z"/>
<path d="M871 2444 c-27 -22 -31 -32 -31 -74 0 -42 4 -52 31 -75 l32 -26 -53
-117 c-149 -335 -166 -372 -220 -494 -37 -86 -45 -98 -67 -98 -21 0 -24 -4
-21 -27 l3 -28 388 -3 387 -2 0 30 c0 23 -4 30 -20 30 -15 0 -27 15 -45 53
-43 90 -263 592 -261 594 2 2 29 -2 62 -8 111 -21 209 0 376 81 66 32 104 44
153 48 l66 5 -3 41 -3 41 -55 -1 c-56 -1 -78 -9 -266 -92 -118 -53 -153 -59
-209 -37 -54 20 -85 57 -85 100 0 43 -47 85 -95 85 -21 0 -45 -9 -64 -26z m53
-227 c-1 -17 -2 -173 -3 -344 l-1 -313 -156 0 c-121 0 -155 3 -151 13 31 78
301 677 306 677 3 0 5 -15 5 -33z m137 -212 c50 -115 114 -259 140 -318 27
-60 49 -113 49 -118 0 -5 -69 -9 -155 -9 l-155 0 0 342 c0 296 2 340 14 328 8
-8 56 -109 107 -225z"/>
<path d="M2600 2443 c-23 -20 -33 -40 -37 -71 -5 -37 -12 -48 -46 -70 -63 -42
-119 -37 -247 22 -146 67 -235 98 -278 94 -36 -3 -37 -5 -40 -44 l-3 -41 66
-5 c49 -4 87 -16 153 -48 168 -81 268 -103 376 -80 32 6 59 10 60 8 2 -1 -60
-147 -138 -323 -119 -268 -146 -321 -164 -323 -17 -3 -22 -10 -22 -33 l0 -29
388 2 387 3 3 27 c3 22 -1 27 -23 30 -24 3 -38 30 -181 352 -85 192 -154 351
-154 353 0 2 14 16 30 30 25 21 30 32 30 70 0 92 -93 136 -160 76z m235 -527
c81 -184 147 -339 146 -343 0 -4 -70 -8 -153 -8 l-153 0 -1 343 c-1 188 2 342
6 342 4 0 73 -151 155 -334z m-175 -16 l0 -340 -155 0 c-98 0 -155 4 -155 10
0 14 267 618 286 648 8 12 17 22 19 22 3 0 5 -153 5 -340z"/>
<path d="M580 1474 c0 -3 19 -37 43 -75 l42 -69 267 0 266 0 39 63 c22 34 43
68 47 75 6 9 -67 12 -348 12 -196 0 -356 -3 -356 -6z"/>
<path d="M2321 1458 c7 -13 28 -47 47 -75 l35 -53 266 0 266 0 43 69 c23 38
42 72 42 75 0 3 -160 6 -355 6 l-356 0 12 -22z"/>
<path d="M1404 1035 c-4 -8 -4 -22 0 -30 5 -13 58 -15 396 -15 l390 0 0 30 0
30 -390 0 c-338 0 -391 -2 -396 -15z"/>
<path d="M1130 930 l0 -40 670 0 670 0 0 40 0 40 -670 0 -670 0 0 -40z"/>
</g>
</svg>
